<mxfile host="app.diagrams.net" modified="2021-10-05T10:54:57.329Z" agent="5.0 (Windows NT 10.0; Win64; x64) AppleWebKit/537.36 (KHTML, like Gecko) Chrome/94.0.4606.61 Safari/537.36" etag="S2dYxSCJTq-6fQu_e6HN" version="14.4.2" type="github" pages="2">
  <diagram id="C5RBs43oDa-KdzZeNtuy" name="Page-1">
    <mxGraphModel dx="652" dy="423" grid="1" gridSize="10" guides="1" tooltips="1" connect="1" arrows="1" fold="1" page="1" pageScale="1" pageWidth="827" pageHeight="1169" math="0" shadow="0">
      <root>
        <mxCell id="WIyWlLk6GJQsqaUBKTNV-0" />
        <mxCell id="WIyWlLk6GJQsqaUBKTNV-1" parent="WIyWlLk6GJQsqaUBKTNV-0" />
        <mxCell id="mHYGF1pSGVY4s3W8ZHmV-11" style="edgeStyle=orthogonalEdgeStyle;rounded=0;orthogonalLoop=1;jettySize=auto;html=1;exitX=0.5;exitY=1;exitDx=0;exitDy=0;entryX=0.75;entryY=0;entryDx=0;entryDy=0;" edge="1" parent="WIyWlLk6GJQsqaUBKTNV-1" source="WIyWlLk6GJQsqaUBKTNV-3" target="mHYGF1pSGVY4s3W8ZHmV-3">
          <mxGeometry relative="1" as="geometry">
            <Array as="points">
              <mxPoint x="420" y="140" />
              <mxPoint x="340" y="140" />
            </Array>
          </mxGeometry>
        </mxCell>
        <mxCell id="mHYGF1pSGVY4s3W8ZHmV-12" style="edgeStyle=orthogonalEdgeStyle;rounded=0;orthogonalLoop=1;jettySize=auto;html=1;exitX=0.5;exitY=1;exitDx=0;exitDy=0;entryX=0.25;entryY=0;entryDx=0;entryDy=0;" edge="1" parent="WIyWlLk6GJQsqaUBKTNV-1" source="WIyWlLk6GJQsqaUBKTNV-3" target="mHYGF1pSGVY4s3W8ZHmV-4">
          <mxGeometry relative="1" as="geometry" />
        </mxCell>
        <mxCell id="WIyWlLk6GJQsqaUBKTNV-3" value="User Module" style="rounded=1;whiteSpace=wrap;html=1;fontSize=12;glass=0;strokeWidth=1;shadow=0;" parent="WIyWlLk6GJQsqaUBKTNV-1" vertex="1">
          <mxGeometry x="360" y="80" width="120" height="40" as="geometry" />
        </mxCell>
        <mxCell id="mHYGF1pSGVY4s3W8ZHmV-14" style="edgeStyle=orthogonalEdgeStyle;rounded=0;orthogonalLoop=1;jettySize=auto;html=1;exitX=0.5;exitY=1;exitDx=0;exitDy=0;entryX=0.5;entryY=1;entryDx=0;entryDy=0;" edge="1" parent="WIyWlLk6GJQsqaUBKTNV-1" source="mHYGF1pSGVY4s3W8ZHmV-3" target="mHYGF1pSGVY4s3W8ZHmV-7">
          <mxGeometry relative="1" as="geometry" />
        </mxCell>
        <mxCell id="mHYGF1pSGVY4s3W8ZHmV-15" style="edgeStyle=orthogonalEdgeStyle;rounded=0;orthogonalLoop=1;jettySize=auto;html=1;exitX=1;exitY=0.5;exitDx=0;exitDy=0;entryX=0;entryY=0.5;entryDx=0;entryDy=0;" edge="1" parent="WIyWlLk6GJQsqaUBKTNV-1" source="mHYGF1pSGVY4s3W8ZHmV-3" target="mHYGF1pSGVY4s3W8ZHmV-4">
          <mxGeometry relative="1" as="geometry" />
        </mxCell>
        <mxCell id="mHYGF1pSGVY4s3W8ZHmV-3" value="User Stock Module" style="rounded=1;whiteSpace=wrap;html=1;" vertex="1" parent="WIyWlLk6GJQsqaUBKTNV-1">
          <mxGeometry x="280" y="160" width="80" height="60" as="geometry" />
        </mxCell>
        <mxCell id="GYc-sChyNjsTThliyApK-4" style="edgeStyle=orthogonalEdgeStyle;rounded=0;orthogonalLoop=1;jettySize=auto;html=1;exitX=0.5;exitY=1;exitDx=0;exitDy=0;entryX=0.5;entryY=0;entryDx=0;entryDy=0;" edge="1" parent="WIyWlLk6GJQsqaUBKTNV-1" source="mHYGF1pSGVY4s3W8ZHmV-4" target="mHYGF1pSGVY4s3W8ZHmV-9">
          <mxGeometry relative="1" as="geometry" />
        </mxCell>
        <mxCell id="mHYGF1pSGVY4s3W8ZHmV-4" value="Order Module" style="rounded=1;whiteSpace=wrap;html=1;" vertex="1" parent="WIyWlLk6GJQsqaUBKTNV-1">
          <mxGeometry x="480" y="160" width="80" height="60" as="geometry" />
        </mxCell>
        <mxCell id="mHYGF1pSGVY4s3W8ZHmV-16" style="edgeStyle=orthogonalEdgeStyle;rounded=0;orthogonalLoop=1;jettySize=auto;html=1;exitX=0;exitY=0.5;exitDx=0;exitDy=0;entryX=0.75;entryY=0;entryDx=0;entryDy=0;" edge="1" parent="WIyWlLk6GJQsqaUBKTNV-1" source="mHYGF1pSGVY4s3W8ZHmV-5" target="mHYGF1pSGVY4s3W8ZHmV-4">
          <mxGeometry relative="1" as="geometry" />
        </mxCell>
        <mxCell id="mHYGF1pSGVY4s3W8ZHmV-17" style="edgeStyle=orthogonalEdgeStyle;rounded=0;orthogonalLoop=1;jettySize=auto;html=1;exitX=0.5;exitY=1;exitDx=0;exitDy=0;entryX=0.5;entryY=0;entryDx=0;entryDy=0;" edge="1" parent="WIyWlLk6GJQsqaUBKTNV-1" source="mHYGF1pSGVY4s3W8ZHmV-5" target="mHYGF1pSGVY4s3W8ZHmV-6">
          <mxGeometry relative="1" as="geometry" />
        </mxCell>
        <mxCell id="mHYGF1pSGVY4s3W8ZHmV-5" value="Shop Module" style="rounded=1;whiteSpace=wrap;html=1;" vertex="1" parent="WIyWlLk6GJQsqaUBKTNV-1">
          <mxGeometry x="700" y="80" width="80" height="60" as="geometry" />
        </mxCell>
        <mxCell id="mHYGF1pSGVY4s3W8ZHmV-6" value="Ledger Module" style="rounded=1;whiteSpace=wrap;html=1;" vertex="1" parent="WIyWlLk6GJQsqaUBKTNV-1">
          <mxGeometry x="700" y="330" width="80" height="60" as="geometry" />
        </mxCell>
        <mxCell id="mHYGF1pSGVY4s3W8ZHmV-13" style="edgeStyle=orthogonalEdgeStyle;rounded=0;orthogonalLoop=1;jettySize=auto;html=1;exitX=0.5;exitY=0;exitDx=0;exitDy=0;entryX=0.25;entryY=0;entryDx=0;entryDy=0;" edge="1" parent="WIyWlLk6GJQsqaUBKTNV-1" source="mHYGF1pSGVY4s3W8ZHmV-7" target="mHYGF1pSGVY4s3W8ZHmV-3">
          <mxGeometry relative="1" as="geometry" />
        </mxCell>
        <mxCell id="mHYGF1pSGVY4s3W8ZHmV-23" value="Stock Transfer" style="edgeLabel;html=1;align=center;verticalAlign=middle;resizable=0;points=[];" vertex="1" connectable="0" parent="mHYGF1pSGVY4s3W8ZHmV-13">
          <mxGeometry x="-0.3852" y="-1" relative="1" as="geometry">
            <mxPoint x="25" y="-11" as="offset" />
          </mxGeometry>
        </mxCell>
        <mxCell id="mHYGF1pSGVY4s3W8ZHmV-24" value="Return Stock" style="edgeLabel;html=1;align=center;verticalAlign=middle;resizable=0;points=[];" vertex="1" connectable="0" parent="mHYGF1pSGVY4s3W8ZHmV-13">
          <mxGeometry x="-0.3852" y="-1" relative="1" as="geometry">
            <mxPoint x="35" y="109" as="offset" />
          </mxGeometry>
        </mxCell>
        <mxCell id="GYc-sChyNjsTThliyApK-0" value="Order Confirm" style="edgeLabel;html=1;align=center;verticalAlign=middle;resizable=0;points=[];" vertex="1" connectable="0" parent="mHYGF1pSGVY4s3W8ZHmV-13">
          <mxGeometry x="-0.3852" y="-1" relative="1" as="geometry">
            <mxPoint x="415" y="39" as="offset" />
          </mxGeometry>
        </mxCell>
        <mxCell id="GYc-sChyNjsTThliyApK-1" value="Order Cancel" style="edgeLabel;html=1;align=center;verticalAlign=middle;resizable=0;points=[];" vertex="1" connectable="0" parent="mHYGF1pSGVY4s3W8ZHmV-13">
          <mxGeometry x="-0.3852" y="-1" relative="1" as="geometry">
            <mxPoint x="385" y="99" as="offset" />
          </mxGeometry>
        </mxCell>
        <mxCell id="GYc-sChyNjsTThliyApK-2" value="Yes" style="edgeLabel;html=1;align=center;verticalAlign=middle;resizable=0;points=[];" vertex="1" connectable="0" parent="mHYGF1pSGVY4s3W8ZHmV-13">
          <mxGeometry x="-0.3852" y="-1" relative="1" as="geometry">
            <mxPoint x="475" y="69" as="offset" />
          </mxGeometry>
        </mxCell>
        <mxCell id="GYc-sChyNjsTThliyApK-3" value="No" style="edgeLabel;html=1;align=center;verticalAlign=middle;resizable=0;points=[];" vertex="1" connectable="0" parent="mHYGF1pSGVY4s3W8ZHmV-13">
          <mxGeometry x="-0.3852" y="-1" relative="1" as="geometry">
            <mxPoint x="425" y="129" as="offset" />
          </mxGeometry>
        </mxCell>
        <mxCell id="GYc-sChyNjsTThliyApK-5" value="Cancel" style="edgeLabel;html=1;align=center;verticalAlign=middle;resizable=0;points=[];" vertex="1" connectable="0" parent="mHYGF1pSGVY4s3W8ZHmV-13">
          <mxGeometry x="-0.3852" y="-1" relative="1" as="geometry">
            <mxPoint x="219" y="209" as="offset" />
          </mxGeometry>
        </mxCell>
        <mxCell id="GYc-sChyNjsTThliyApK-6" value="Confirm" style="edgeLabel;html=1;align=center;verticalAlign=middle;resizable=0;points=[];" vertex="1" connectable="0" parent="mHYGF1pSGVY4s3W8ZHmV-13">
          <mxGeometry x="-0.3852" y="-1" relative="1" as="geometry">
            <mxPoint x="395" y="209" as="offset" />
          </mxGeometry>
        </mxCell>
        <mxCell id="mHYGF1pSGVY4s3W8ZHmV-7" value="Product Module" style="rounded=1;whiteSpace=wrap;html=1;" vertex="1" parent="WIyWlLk6GJQsqaUBKTNV-1">
          <mxGeometry x="120" y="160" width="80" height="60" as="geometry" />
        </mxCell>
        <mxCell id="mHYGF1pSGVY4s3W8ZHmV-21" style="edgeStyle=orthogonalEdgeStyle;rounded=0;orthogonalLoop=1;jettySize=auto;html=1;exitX=0;exitY=0.5;exitDx=0;exitDy=0;entryX=0.75;entryY=1;entryDx=0;entryDy=0;" edge="1" parent="WIyWlLk6GJQsqaUBKTNV-1" source="mHYGF1pSGVY4s3W8ZHmV-8" target="mHYGF1pSGVY4s3W8ZHmV-4">
          <mxGeometry relative="1" as="geometry">
            <Array as="points">
              <mxPoint x="540" y="260" />
            </Array>
          </mxGeometry>
        </mxCell>
        <mxCell id="mHYGF1pSGVY4s3W8ZHmV-22" style="edgeStyle=orthogonalEdgeStyle;rounded=0;orthogonalLoop=1;jettySize=auto;html=1;exitX=0.5;exitY=0;exitDx=0;exitDy=0;entryX=1;entryY=0.5;entryDx=0;entryDy=0;" edge="1" parent="WIyWlLk6GJQsqaUBKTNV-1" source="mHYGF1pSGVY4s3W8ZHmV-8" target="mHYGF1pSGVY4s3W8ZHmV-4">
          <mxGeometry relative="1" as="geometry" />
        </mxCell>
        <mxCell id="mHYGF1pSGVY4s3W8ZHmV-8" value="Sale" style="rhombus;whiteSpace=wrap;html=1;" vertex="1" parent="WIyWlLk6GJQsqaUBKTNV-1">
          <mxGeometry x="630" y="230" width="60" height="60" as="geometry" />
        </mxCell>
        <mxCell id="mHYGF1pSGVY4s3W8ZHmV-18" style="edgeStyle=orthogonalEdgeStyle;rounded=0;orthogonalLoop=1;jettySize=auto;html=1;exitX=1;exitY=0.5;exitDx=0;exitDy=0;entryX=0;entryY=0.5;entryDx=0;entryDy=0;" edge="1" parent="WIyWlLk6GJQsqaUBKTNV-1" source="mHYGF1pSGVY4s3W8ZHmV-9" target="mHYGF1pSGVY4s3W8ZHmV-6">
          <mxGeometry relative="1" as="geometry" />
        </mxCell>
        <mxCell id="mHYGF1pSGVY4s3W8ZHmV-19" style="edgeStyle=orthogonalEdgeStyle;rounded=0;orthogonalLoop=1;jettySize=auto;html=1;exitX=0;exitY=0.5;exitDx=0;exitDy=0;entryX=1;entryY=0.5;entryDx=0;entryDy=0;" edge="1" parent="WIyWlLk6GJQsqaUBKTNV-1" source="mHYGF1pSGVY4s3W8ZHmV-9" target="mHYGF1pSGVY4s3W8ZHmV-10">
          <mxGeometry relative="1" as="geometry" />
        </mxCell>
        <mxCell id="mHYGF1pSGVY4s3W8ZHmV-9" value="Order Status" style="rhombus;whiteSpace=wrap;html=1;" vertex="1" parent="WIyWlLk6GJQsqaUBKTNV-1">
          <mxGeometry x="450" y="330" width="60" height="60" as="geometry" />
        </mxCell>
        <mxCell id="mHYGF1pSGVY4s3W8ZHmV-20" style="edgeStyle=orthogonalEdgeStyle;rounded=0;orthogonalLoop=1;jettySize=auto;html=1;exitX=0.75;exitY=0;exitDx=0;exitDy=0;entryX=0.75;entryY=1;entryDx=0;entryDy=0;" edge="1" parent="WIyWlLk6GJQsqaUBKTNV-1" source="mHYGF1pSGVY4s3W8ZHmV-10" target="mHYGF1pSGVY4s3W8ZHmV-3">
          <mxGeometry relative="1" as="geometry" />
        </mxCell>
        <mxCell id="mHYGF1pSGVY4s3W8ZHmV-10" value="Return Order Module" style="rounded=1;whiteSpace=wrap;html=1;" vertex="1" parent="WIyWlLk6GJQsqaUBKTNV-1">
          <mxGeometry x="280" y="330" width="80" height="60" as="geometry" />
        </mxCell>
      </root>
    </mxGraphModel>
  </diagram>
  <diagram id="i4OBki2poFKfD5lvck6T" name="Page-2">
    <mxGraphModel dx="1440" dy="788" grid="1" gridSize="10" guides="1" tooltips="1" connect="1" arrows="1" fold="1" page="1" pageScale="1" pageWidth="850" pageHeight="1100" math="0" shadow="0">
      <root>
        <mxCell id="9E6oQjAEeI5cZrqRofvM-0" />
        <mxCell id="9E6oQjAEeI5cZrqRofvM-1" parent="9E6oQjAEeI5cZrqRofvM-0" />
        <mxCell id="c3rQEY1Ta_gDFObtEimZ-4" style="edgeStyle=orthogonalEdgeStyle;rounded=0;orthogonalLoop=1;jettySize=auto;html=1;exitX=0.5;exitY=1;exitDx=0;exitDy=0;entryX=0.5;entryY=0;entryDx=0;entryDy=0;" edge="1" parent="9E6oQjAEeI5cZrqRofvM-1" source="26z-rmuYcwxWtgwn-szW-0" target="c3rQEY1Ta_gDFObtEimZ-1">
          <mxGeometry relative="1" as="geometry" />
        </mxCell>
        <mxCell id="26z-rmuYcwxWtgwn-szW-0" value="Add User Stock" style="rounded=1;whiteSpace=wrap;html=1;" vertex="1" parent="9E6oQjAEeI5cZrqRofvM-1">
          <mxGeometry x="500" y="110" width="120" height="50" as="geometry" />
        </mxCell>
        <mxCell id="c3rQEY1Ta_gDFObtEimZ-3" style="edgeStyle=orthogonalEdgeStyle;rounded=0;orthogonalLoop=1;jettySize=auto;html=1;exitX=0;exitY=0.5;exitDx=0;exitDy=0;entryX=1;entryY=0.5;entryDx=0;entryDy=0;" edge="1" parent="9E6oQjAEeI5cZrqRofvM-1" source="c3rQEY1Ta_gDFObtEimZ-1" target="c3rQEY1Ta_gDFObtEimZ-2">
          <mxGeometry relative="1" as="geometry">
            <mxPoint x="470" y="240" as="targetPoint" />
          </mxGeometry>
        </mxCell>
        <mxCell id="TPsK6ZZ7xym_C1o8iRBV-14" style="edgeStyle=orthogonalEdgeStyle;rounded=0;orthogonalLoop=1;jettySize=auto;html=1;exitX=0.5;exitY=1;exitDx=0;exitDy=0;entryX=0.5;entryY=0;entryDx=0;entryDy=0;" edge="1" parent="9E6oQjAEeI5cZrqRofvM-1" source="c3rQEY1Ta_gDFObtEimZ-1" target="TPsK6ZZ7xym_C1o8iRBV-13">
          <mxGeometry relative="1" as="geometry" />
        </mxCell>
        <mxCell id="c3rQEY1Ta_gDFObtEimZ-1" value="Fresh Stock" style="rhombus;whiteSpace=wrap;html=1;" vertex="1" parent="9E6oQjAEeI5cZrqRofvM-1">
          <mxGeometry x="520" y="200" width="80" height="80" as="geometry" />
        </mxCell>
        <mxCell id="TPsK6ZZ7xym_C1o8iRBV-16" style="edgeStyle=orthogonalEdgeStyle;rounded=0;orthogonalLoop=1;jettySize=auto;html=1;exitX=0.5;exitY=1;exitDx=0;exitDy=0;entryX=0;entryY=0.5;entryDx=0;entryDy=0;" edge="1" parent="9E6oQjAEeI5cZrqRofvM-1" source="c3rQEY1Ta_gDFObtEimZ-2" target="TPsK6ZZ7xym_C1o8iRBV-13">
          <mxGeometry relative="1" as="geometry" />
        </mxCell>
        <mxCell id="c3rQEY1Ta_gDFObtEimZ-2" value="Add Previous Stock" style="rounded=1;whiteSpace=wrap;html=1;" vertex="1" parent="9E6oQjAEeI5cZrqRofvM-1">
          <mxGeometry x="320" y="210" width="120" height="60" as="geometry" />
        </mxCell>
        <mxCell id="TPsK6ZZ7xym_C1o8iRBV-3" style="edgeStyle=orthogonalEdgeStyle;rounded=0;orthogonalLoop=1;jettySize=auto;html=1;exitX=0.5;exitY=1;exitDx=0;exitDy=0;entryX=0.5;entryY=0;entryDx=0;entryDy=0;" edge="1" parent="9E6oQjAEeI5cZrqRofvM-1" source="c3rQEY1Ta_gDFObtEimZ-0" target="TPsK6ZZ7xym_C1o8iRBV-2">
          <mxGeometry relative="1" as="geometry">
            <mxPoint x="560" y="610" as="sourcePoint" />
          </mxGeometry>
        </mxCell>
        <mxCell id="uLJxcvvgxNkFz43jV6Ma-14" style="edgeStyle=orthogonalEdgeStyle;rounded=0;orthogonalLoop=1;jettySize=auto;html=1;exitX=0.5;exitY=1;exitDx=0;exitDy=0;entryX=0.5;entryY=0;entryDx=0;entryDy=0;" edge="1" parent="9E6oQjAEeI5cZrqRofvM-1" source="TPsK6ZZ7xym_C1o8iRBV-2" target="uLJxcvvgxNkFz43jV6Ma-13">
          <mxGeometry relative="1" as="geometry" />
        </mxCell>
        <mxCell id="fjpThwctr9VRBzaCAx9o-0" style="edgeStyle=orthogonalEdgeStyle;rounded=0;orthogonalLoop=1;jettySize=auto;html=1;exitX=0;exitY=0.5;exitDx=0;exitDy=0;entryX=1;entryY=0.5;entryDx=0;entryDy=0;" edge="1" parent="9E6oQjAEeI5cZrqRofvM-1" source="TPsK6ZZ7xym_C1o8iRBV-2" target="uLJxcvvgxNkFz43jV6Ma-16">
          <mxGeometry relative="1" as="geometry" />
        </mxCell>
        <mxCell id="TPsK6ZZ7xym_C1o8iRBV-2" value="Return Products" style="rhombus;whiteSpace=wrap;html=1;" vertex="1" parent="9E6oQjAEeI5cZrqRofvM-1">
          <mxGeometry x="520" y="670" width="80" height="80" as="geometry" />
        </mxCell>
        <mxCell id="TPsK6ZZ7xym_C1o8iRBV-6" style="edgeStyle=orthogonalEdgeStyle;rounded=0;orthogonalLoop=1;jettySize=auto;html=1;exitX=0.5;exitY=0;exitDx=0;exitDy=0;entryX=0;entryY=0.5;entryDx=0;entryDy=0;" edge="1" parent="9E6oQjAEeI5cZrqRofvM-1" source="TPsK6ZZ7xym_C1o8iRBV-4" target="c3rQEY1Ta_gDFObtEimZ-2">
          <mxGeometry relative="1" as="geometry" />
        </mxCell>
        <mxCell id="TPsK6ZZ7xym_C1o8iRBV-7" value="No" style="edgeLabel;html=1;align=center;verticalAlign=middle;resizable=0;points=[];" vertex="1" connectable="0" parent="TPsK6ZZ7xym_C1o8iRBV-6">
          <mxGeometry x="-0.5237" y="1" relative="1" as="geometry">
            <mxPoint x="-9" y="91.67" as="offset" />
          </mxGeometry>
        </mxCell>
        <mxCell id="TPsK6ZZ7xym_C1o8iRBV-17" value="No" style="edgeLabel;html=1;align=center;verticalAlign=middle;resizable=0;points=[];" vertex="1" connectable="0" parent="TPsK6ZZ7xym_C1o8iRBV-6">
          <mxGeometry x="-0.5237" y="1" relative="1" as="geometry">
            <mxPoint x="251" y="-318.82" as="offset" />
          </mxGeometry>
        </mxCell>
        <mxCell id="TPsK6ZZ7xym_C1o8iRBV-24" value="No" style="edgeLabel;html=1;align=center;verticalAlign=middle;resizable=0;points=[];" vertex="1" connectable="0" parent="TPsK6ZZ7xym_C1o8iRBV-6">
          <mxGeometry x="-0.5237" y="1" relative="1" as="geometry">
            <mxPoint x="311" y="221.76" as="offset" />
          </mxGeometry>
        </mxCell>
        <mxCell id="uLJxcvvgxNkFz43jV6Ma-24" value="No" style="edgeLabel;html=1;align=center;verticalAlign=middle;resizable=0;points=[];" vertex="1" connectable="0" parent="TPsK6ZZ7xym_C1o8iRBV-6">
          <mxGeometry x="-0.5237" y="1" relative="1" as="geometry">
            <mxPoint x="391" y="311.43" as="offset" />
          </mxGeometry>
        </mxCell>
        <mxCell id="TPsK6ZZ7xym_C1o8iRBV-9" style="edgeStyle=orthogonalEdgeStyle;rounded=0;orthogonalLoop=1;jettySize=auto;html=1;exitX=0;exitY=0.5;exitDx=0;exitDy=0;entryX=1;entryY=0.5;entryDx=0;entryDy=0;" edge="1" parent="9E6oQjAEeI5cZrqRofvM-1" source="TPsK6ZZ7xym_C1o8iRBV-4" target="TPsK6ZZ7xym_C1o8iRBV-8">
          <mxGeometry relative="1" as="geometry" />
        </mxCell>
        <mxCell id="TPsK6ZZ7xym_C1o8iRBV-4" value="Expired Product" style="rhombus;whiteSpace=wrap;html=1;" vertex="1" parent="9E6oQjAEeI5cZrqRofvM-1">
          <mxGeometry x="200" y="670" width="80" height="80" as="geometry" />
        </mxCell>
        <mxCell id="TPsK6ZZ7xym_C1o8iRBV-8" value="Return Expired/Damaged" style="rounded=1;whiteSpace=wrap;html=1;" vertex="1" parent="9E6oQjAEeI5cZrqRofvM-1">
          <mxGeometry x="10" y="680" width="120" height="60" as="geometry" />
        </mxCell>
        <mxCell id="TPsK6ZZ7xym_C1o8iRBV-10" value="Yes" style="text;html=1;align=center;verticalAlign=middle;resizable=0;points=[];autosize=1;" vertex="1" parent="9E6oQjAEeI5cZrqRofvM-1">
          <mxGeometry x="150" y="690" width="30" height="20" as="geometry" />
        </mxCell>
        <mxCell id="TPsK6ZZ7xym_C1o8iRBV-12" value="Yes" style="text;html=1;align=center;verticalAlign=middle;resizable=0;points=[];autosize=1;" vertex="1" parent="9E6oQjAEeI5cZrqRofvM-1">
          <mxGeometry x="470" y="710" width="30" height="20" as="geometry" />
        </mxCell>
        <mxCell id="c3rQEY1Ta_gDFObtEimZ-0" value="Visit Shop" style="rounded=1;whiteSpace=wrap;html=1;" vertex="1" parent="9E6oQjAEeI5cZrqRofvM-1">
          <mxGeometry x="500" y="440" width="120" height="60" as="geometry" />
        </mxCell>
        <mxCell id="TPsK6ZZ7xym_C1o8iRBV-15" style="edgeStyle=orthogonalEdgeStyle;rounded=0;orthogonalLoop=1;jettySize=auto;html=1;exitX=0.5;exitY=1;exitDx=0;exitDy=0;entryX=0.5;entryY=0;entryDx=0;entryDy=0;" edge="1" parent="9E6oQjAEeI5cZrqRofvM-1" source="TPsK6ZZ7xym_C1o8iRBV-13" target="c3rQEY1Ta_gDFObtEimZ-0">
          <mxGeometry relative="1" as="geometry" />
        </mxCell>
        <mxCell id="TPsK6ZZ7xym_C1o8iRBV-13" value="Create Total Stock" style="rounded=1;whiteSpace=wrap;html=1;" vertex="1" parent="9E6oQjAEeI5cZrqRofvM-1">
          <mxGeometry x="500" y="330" width="120" height="60" as="geometry" />
        </mxCell>
        <mxCell id="TPsK6ZZ7xym_C1o8iRBV-18" value="Yes" style="text;html=1;align=center;verticalAlign=middle;resizable=0;points=[];autosize=1;" vertex="1" parent="9E6oQjAEeI5cZrqRofvM-1">
          <mxGeometry x="560" y="290" width="30" height="20" as="geometry" />
        </mxCell>
        <mxCell id="uLJxcvvgxNkFz43jV6Ma-6" style="edgeStyle=orthogonalEdgeStyle;rounded=0;orthogonalLoop=1;jettySize=auto;html=1;exitX=0.5;exitY=1;exitDx=0;exitDy=0;entryX=0.5;entryY=0;entryDx=0;entryDy=0;" edge="1" parent="9E6oQjAEeI5cZrqRofvM-1" source="TPsK6ZZ7xym_C1o8iRBV-19" target="uLJxcvvgxNkFz43jV6Ma-5">
          <mxGeometry relative="1" as="geometry" />
        </mxCell>
        <mxCell id="TPsK6ZZ7xym_C1o8iRBV-19" value="Generate Invoice/Ledger" style="rounded=1;whiteSpace=wrap;html=1;" vertex="1" parent="9E6oQjAEeI5cZrqRofvM-1">
          <mxGeometry x="500" y="1030" width="120" height="60" as="geometry" />
        </mxCell>
        <mxCell id="uLJxcvvgxNkFz43jV6Ma-8" style="edgeStyle=orthogonalEdgeStyle;rounded=0;orthogonalLoop=1;jettySize=auto;html=1;exitX=0.5;exitY=1;exitDx=0;exitDy=0;entryX=0.5;entryY=0;entryDx=0;entryDy=0;" edge="1" parent="9E6oQjAEeI5cZrqRofvM-1" source="uLJxcvvgxNkFz43jV6Ma-5" target="uLJxcvvgxNkFz43jV6Ma-7">
          <mxGeometry relative="1" as="geometry" />
        </mxCell>
        <mxCell id="uLJxcvvgxNkFz43jV6Ma-5" value="Add Payments" style="rounded=1;whiteSpace=wrap;html=1;" vertex="1" parent="9E6oQjAEeI5cZrqRofvM-1">
          <mxGeometry x="500" y="1140" width="120" height="60" as="geometry" />
        </mxCell>
        <mxCell id="ia83awyO4-1sCJsejGUl-1" style="edgeStyle=orthogonalEdgeStyle;rounded=0;orthogonalLoop=1;jettySize=auto;html=1;exitX=0;exitY=0.5;exitDx=0;exitDy=0;entryX=1;entryY=0.5;entryDx=0;entryDy=0;" edge="1" parent="9E6oQjAEeI5cZrqRofvM-1" source="uLJxcvvgxNkFz43jV6Ma-7" target="ia83awyO4-1sCJsejGUl-0">
          <mxGeometry relative="1" as="geometry" />
        </mxCell>
        <mxCell id="uLJxcvvgxNkFz43jV6Ma-7" value="Add to Collections" style="rounded=1;whiteSpace=wrap;html=1;" vertex="1" parent="9E6oQjAEeI5cZrqRofvM-1">
          <mxGeometry x="500" y="1240" width="120" height="60" as="geometry" />
        </mxCell>
        <mxCell id="uLJxcvvgxNkFz43jV6Ma-10" style="edgeStyle=orthogonalEdgeStyle;rounded=0;orthogonalLoop=1;jettySize=auto;html=1;exitX=1;exitY=0.5;exitDx=0;exitDy=0;entryX=0;entryY=0.5;entryDx=0;entryDy=0;" edge="1" parent="9E6oQjAEeI5cZrqRofvM-1" source="uLJxcvvgxNkFz43jV6Ma-9" target="26z-rmuYcwxWtgwn-szW-0">
          <mxGeometry relative="1" as="geometry" />
        </mxCell>
        <mxCell id="uLJxcvvgxNkFz43jV6Ma-9" value="Stock Module" style="rounded=1;whiteSpace=wrap;html=1;" vertex="1" parent="9E6oQjAEeI5cZrqRofvM-1">
          <mxGeometry x="10" y="105" width="120" height="60" as="geometry" />
        </mxCell>
        <mxCell id="uLJxcvvgxNkFz43jV6Ma-20" style="edgeStyle=orthogonalEdgeStyle;rounded=0;orthogonalLoop=1;jettySize=auto;html=1;exitX=0.5;exitY=1;exitDx=0;exitDy=0;entryX=0.5;entryY=0;entryDx=0;entryDy=0;" edge="1" parent="9E6oQjAEeI5cZrqRofvM-1" source="uLJxcvvgxNkFz43jV6Ma-13" target="uLJxcvvgxNkFz43jV6Ma-19">
          <mxGeometry relative="1" as="geometry" />
        </mxCell>
        <mxCell id="uLJxcvvgxNkFz43jV6Ma-21" style="edgeStyle=orthogonalEdgeStyle;rounded=0;orthogonalLoop=1;jettySize=auto;html=1;exitX=1;exitY=0.5;exitDx=0;exitDy=0;entryX=1;entryY=0.5;entryDx=0;entryDy=0;" edge="1" parent="9E6oQjAEeI5cZrqRofvM-1" source="uLJxcvvgxNkFz43jV6Ma-13" target="TPsK6ZZ7xym_C1o8iRBV-19">
          <mxGeometry relative="1" as="geometry">
            <Array as="points">
              <mxPoint x="670" y="850" />
              <mxPoint x="670" y="1060" />
            </Array>
          </mxGeometry>
        </mxCell>
        <mxCell id="uLJxcvvgxNkFz43jV6Ma-13" value="New Sale" style="rhombus;whiteSpace=wrap;html=1;" vertex="1" parent="9E6oQjAEeI5cZrqRofvM-1">
          <mxGeometry x="520" y="810" width="80" height="80" as="geometry" />
        </mxCell>
        <mxCell id="uLJxcvvgxNkFz43jV6Ma-18" style="edgeStyle=orthogonalEdgeStyle;rounded=0;orthogonalLoop=1;jettySize=auto;html=1;exitX=0.5;exitY=1;exitDx=0;exitDy=0;entryX=0;entryY=0.5;entryDx=0;entryDy=0;" edge="1" parent="9E6oQjAEeI5cZrqRofvM-1" source="uLJxcvvgxNkFz43jV6Ma-16" target="uLJxcvvgxNkFz43jV6Ma-13">
          <mxGeometry relative="1" as="geometry" />
        </mxCell>
        <mxCell id="fjpThwctr9VRBzaCAx9o-1" style="edgeStyle=orthogonalEdgeStyle;rounded=0;orthogonalLoop=1;jettySize=auto;html=1;exitX=0;exitY=0.5;exitDx=0;exitDy=0;entryX=1;entryY=0.5;entryDx=0;entryDy=0;" edge="1" parent="9E6oQjAEeI5cZrqRofvM-1" source="uLJxcvvgxNkFz43jV6Ma-16" target="TPsK6ZZ7xym_C1o8iRBV-4">
          <mxGeometry relative="1" as="geometry" />
        </mxCell>
        <mxCell id="uLJxcvvgxNkFz43jV6Ma-16" value="Credit to User Stock" style="rounded=1;whiteSpace=wrap;html=1;" vertex="1" parent="9E6oQjAEeI5cZrqRofvM-1">
          <mxGeometry x="330" y="680" width="120" height="60" as="geometry" />
        </mxCell>
        <mxCell id="uLJxcvvgxNkFz43jV6Ma-22" style="edgeStyle=orthogonalEdgeStyle;rounded=0;orthogonalLoop=1;jettySize=auto;html=1;exitX=0.5;exitY=1;exitDx=0;exitDy=0;entryX=0.5;entryY=0;entryDx=0;entryDy=0;" edge="1" parent="9E6oQjAEeI5cZrqRofvM-1" source="uLJxcvvgxNkFz43jV6Ma-19" target="TPsK6ZZ7xym_C1o8iRBV-19">
          <mxGeometry relative="1" as="geometry" />
        </mxCell>
        <mxCell id="uLJxcvvgxNkFz43jV6Ma-19" value="Debit from User Stock" style="rounded=1;whiteSpace=wrap;html=1;" vertex="1" parent="9E6oQjAEeI5cZrqRofvM-1">
          <mxGeometry x="500" y="940" width="120" height="60" as="geometry" />
        </mxCell>
        <mxCell id="uLJxcvvgxNkFz43jV6Ma-23" value="Yes" style="text;html=1;align=center;verticalAlign=middle;resizable=0;points=[];autosize=1;" vertex="1" parent="9E6oQjAEeI5cZrqRofvM-1">
          <mxGeometry x="560" y="900" width="30" height="20" as="geometry" />
        </mxCell>
        <mxCell id="ia83awyO4-1sCJsejGUl-0" value="Collection Module" style="rounded=1;whiteSpace=wrap;html=1;" vertex="1" parent="9E6oQjAEeI5cZrqRofvM-1">
          <mxGeometry x="220" y="1240" width="120" height="60" as="geometry" />
        </mxCell>
      </root>
    </mxGraphModel>
  </diagram>
</mxfile>
